<svg width="50" height="50" viewBox="0 0 50 50" fill="none" xmlns="http://www.w3.org/2000/svg">
<path d="M0.5 6C0.5 2.96243 2.96243 0.5 6 0.5H44C47.0376 0.5 49.5 2.96243 49.5 6V44C49.5 47.0376 47.0376 49.5 44 49.5H6C2.96243 49.5 0.5 47.0376 0.5 44V6Z" stroke="#1E293B"/>
<path d="M32.4475 27.105L28.4475 25.105C28.29 25.0265 28.1147 24.991 27.9391 25.002C27.7635 25.0129 27.594 25.07 27.4475 25.1675L25.6112 26.3925C24.7683 25.9291 24.0746 25.2354 23.6112 24.3925L24.8362 22.5562C24.9337 22.4098 24.9908 22.2402 25.0018 22.0646C25.0127 21.8891 24.9772 21.7137 24.8987 21.5562L22.8987 17.5563C22.8159 17.3888 22.6877 17.248 22.5289 17.1497C22.37 17.0514 22.1868 16.9995 22 17C20.6739 17 19.4021 17.5268 18.4645 18.4645C17.5268 19.4021 17 20.6739 17 22C17.0033 24.9164 18.1633 27.7123 20.2255 29.7745C22.2877 31.8367 25.0836 32.9967 28 33C28.6566 33 29.3068 32.8707 29.9134 32.6194C30.52 32.3681 31.0712 31.9998 31.5355 31.5355C31.9998 31.0712 32.3681 30.52 32.6194 29.9134C32.8707 29.3068 33 28.6566 33 28C33.0001 27.8142 32.9485 27.6321 32.8509 27.474C32.7533 27.3159 32.6136 27.1881 32.4475 27.105ZM28 31C25.6139 30.9974 23.3262 30.0483 21.639 28.361C19.9517 26.6738 19.0026 24.3861 19 22C18.9998 21.3064 19.24 20.6342 19.6796 20.0977C20.1192 19.5612 20.7311 19.1936 21.4112 19.0575L22.8462 21.9325L21.625 23.75C21.5337 23.8869 21.4777 24.0442 21.4617 24.2079C21.4458 24.3717 21.4706 24.5368 21.5337 24.6888C22.2492 26.3892 23.602 27.742 25.3025 28.4575C25.4549 28.5235 25.6213 28.5505 25.7867 28.5361C25.9521 28.5217 26.1113 28.4663 26.25 28.375L28.0763 27.1575L30.9513 28.5925C30.8141 29.2734 30.4449 29.8856 29.9067 30.3247C29.3685 30.7637 28.6946 31.0024 28 31ZM25 12C22.7556 11.9995 20.5493 12.5801 18.5958 13.6853C16.6424 14.7905 15.0083 16.3826 13.8527 18.3066C12.6971 20.2307 12.0594 22.4212 12.0015 24.6648C11.9436 26.9085 12.4676 29.1289 13.5225 31.11L12.1037 35.3662C11.9862 35.7186 11.9692 36.0968 12.0545 36.4583C12.1398 36.8199 12.3241 37.1505 12.5868 37.4132C12.8495 37.6759 13.1801 37.8602 13.5417 37.9455C13.9032 38.0308 14.2814 38.0138 14.6337 37.8962L18.89 36.4775C20.6335 37.4048 22.5653 37.9228 24.5388 37.992C26.5123 38.0613 28.4757 37.68 30.2798 36.8772C32.084 36.0743 33.6816 34.871 34.9513 33.3586C36.221 31.8462 37.1294 30.0644 37.6077 28.1484C38.0859 26.2325 38.1214 24.2328 37.7114 22.301C37.3014 20.3693 36.4568 18.5564 35.2415 16.9999C34.0263 15.4434 32.4724 14.1842 30.6979 13.3178C28.9233 12.4515 26.9747 12.0008 25 12ZM25 36C23.0662 36.0013 21.1664 35.4921 19.4925 34.5238C19.3699 34.4527 19.2337 34.4085 19.0928 34.394C18.9518 34.3796 18.8094 34.3953 18.675 34.44L14 36L15.5587 31.325C15.6037 31.1907 15.6196 31.0483 15.6053 30.9074C15.5911 30.7665 15.5471 30.6301 15.4762 30.5075C14.2637 28.4111 13.7769 25.9732 14.0913 23.572C14.4057 21.1707 15.5037 18.9403 17.2151 17.2267C18.9265 15.5132 21.1555 14.4123 23.5564 14.0949C25.9572 13.7775 28.3958 14.2612 30.4937 15.4711C32.5916 16.681 34.2315 18.5494 35.1592 20.7864C36.0869 23.0235 36.2503 25.5042 35.6243 27.8436C34.9982 30.1831 33.6176 32.2505 31.6967 33.7253C29.7757 35.2 27.4218 35.9996 25 36Z" fill="black"/>
</svg>
