<svg width="50" height="61" viewBox="0 0 50 61" fill="none" xmlns="http://www.w3.org/2000/svg">
<path d="M0.5 6C0.5 2.96243 2.96243 0.5 6 0.5H44C47.0376 0.5 49.5 2.96243 49.5 6V44C49.5 47.0376 47.0376 49.5 44 49.5H6C2.96243 49.5 0.5 47.0376 0.5 44V6Z" stroke="#1E293B"/>
<path d="M25 19.4615C23.9046 19.4615 22.8338 19.7864 21.923 20.3949C21.0122 21.0035 20.3023 21.8685 19.8831 22.8805C19.4639 23.8925 19.3543 25.0061 19.568 26.0805C19.7817 27.1549 20.3091 28.1417 21.0837 28.9163C21.8583 29.6909 22.8451 30.2183 23.9195 30.432C24.9939 30.6457 26.1075 30.5361 27.1195 30.1169C28.1315 29.6977 28.9965 28.9878 29.6051 28.077C30.2136 27.1662 30.5385 26.0954 30.5385 25C30.5369 23.5316 29.9529 22.1237 28.9146 21.0854C27.8763 20.0471 26.4684 19.4631 25 19.4615ZM25 28.6923C24.2697 28.6923 23.5559 28.4758 22.9487 28.07C22.3415 27.6643 21.8682 27.0877 21.5888 26.413C21.3093 25.7383 21.2362 24.9959 21.3786 24.2797C21.5211 23.5634 21.8728 22.9055 22.3891 22.3891C22.9055 21.8728 23.5634 21.5211 24.2797 21.3786C24.9959 21.2362 25.7383 21.3093 26.413 21.5888C27.0877 21.8682 27.6643 22.3415 28.07 22.9487C28.4758 23.5559 28.6923 24.2697 28.6923 25C28.6923 25.9793 28.3033 26.9184 27.6109 27.6109C26.9184 28.3033 25.9793 28.6923 25 28.6923ZM30.5385 13H19.4615C17.7484 13.0018 16.1059 13.6832 14.8946 14.8946C13.6832 16.1059 13.0018 17.7484 13 19.4615V30.5385C13.0018 32.2516 13.6832 33.8941 14.8946 35.1054C16.1059 36.3168 17.7484 36.9982 19.4615 37H30.5385C32.2516 36.9982 33.8941 36.3168 35.1054 35.1054C36.3168 33.8941 36.9982 32.2516 37 30.5385V19.4615C36.9982 17.7484 36.3168 16.1059 35.1054 14.8946C33.8941 13.6832 32.2516 13.0018 30.5385 13ZM35.1538 30.5385C35.1538 31.7625 34.6676 32.9365 33.802 33.802C32.9365 34.6676 31.7625 35.1538 30.5385 35.1538H19.4615C18.2375 35.1538 17.0635 34.6676 16.198 33.802C15.3324 32.9365 14.8462 31.7625 14.8462 30.5385V19.4615C14.8462 18.2375 15.3324 17.0635 16.198 16.198C17.0635 15.3324 18.2375 14.8462 19.4615 14.8462H30.5385C31.7625 14.8462 32.9365 15.3324 33.802 16.198C34.6676 17.0635 35.1538 18.2375 35.1538 19.4615V30.5385ZM32.3846 19C32.3846 19.2739 32.3034 19.5416 32.1513 19.7693C31.9991 19.9969 31.7829 20.1744 31.5299 20.2792C31.2769 20.384 30.9985 20.4114 30.7299 20.358C30.4613 20.3046 30.2146 20.1727 30.0209 19.9791C29.8273 19.7854 29.6954 19.5387 29.642 19.2701C29.5886 19.0015 29.616 18.7231 29.7208 18.4701C29.8256 18.2171 30.003 18.0009 30.2307 17.8487C30.4584 17.6966 30.7261 17.6154 31 17.6154C31.3672 17.6154 31.7194 17.7613 31.9791 18.0209C32.2387 18.2806 32.3846 18.6328 32.3846 19Z" fill="black"/>
</svg>
