<svg width="50" height="50" viewBox="0 0 50 50" fill="none" xmlns="http://www.w3.org/2000/svg">
<path d="M0.5 6C0.5 2.96243 2.96243 0.5 6 0.5H44C47.0376 0.5 49.5 2.96243 49.5 6V44C49.5 47.0376 47.0376 49.5 44 49.5H6C2.96243 49.5 0.5 47.0376 0.5 44V6Z" stroke="#1E293B"/>
<path d="M22.75 26.125C22.75 26.3475 22.684 26.565 22.5604 26.75C22.4368 26.935 22.2611 27.0792 22.0555 27.1643C21.85 27.2495 21.6238 27.2718 21.4055 27.2284C21.1873 27.185 20.9868 27.0778 20.8295 26.9205C20.6722 26.7631 20.565 26.5627 20.5216 26.3445C20.4782 26.1262 20.5005 25.9 20.5856 25.6945C20.6708 25.4889 20.815 25.3132 21 25.1896C21.185 25.066 21.4025 25 21.625 25C21.9234 25 22.2095 25.1185 22.4205 25.3295C22.6315 25.5405 22.75 25.8266 22.75 26.125ZM28.375 25C28.1525 25 27.935 25.066 27.75 25.1896C27.565 25.3132 27.4208 25.4889 27.3356 25.6945C27.2505 25.9 27.2282 26.1262 27.2716 26.3445C27.315 26.5627 27.4222 26.7631 27.5795 26.9205C27.7368 27.0778 27.9373 27.185 28.1555 27.2284C28.3738 27.2718 28.6 27.2495 28.8055 27.1643C29.0111 27.0792 29.1868 26.935 29.3104 26.75C29.434 26.565 29.5 26.3475 29.5 26.125C29.5 25.8266 29.3815 25.5405 29.1705 25.3295C28.9595 25.1185 28.6734 25 28.375 25ZM35.3547 31.0844L29.0734 33.8697C28.8846 33.9536 28.6805 33.9981 28.4738 34.0003C28.2672 34.0025 28.0622 33.9624 27.8716 33.8825C27.681 33.8026 27.5087 33.6846 27.3654 33.5357C27.222 33.3867 27.1107 33.2101 27.0381 33.0165L26.2778 30.954C25.8578 30.9822 25.4319 30.9965 25 30.9972C24.5681 30.9978 24.1422 30.9834 23.7222 30.954L22.9619 33.0165C22.8892 33.21 22.7778 33.3866 22.6344 33.5354C22.4911 33.6843 22.3188 33.8023 22.1282 33.8821C21.9377 33.962 21.7328 34.0021 21.5261 34C21.3195 33.9978 21.1155 33.9535 20.9266 33.8697L14.6453 31.0844C14.3211 30.9426 14.0578 30.6904 13.9022 30.3725C13.7467 30.0547 13.709 29.692 13.7959 29.349L16.5625 18.4375C16.6355 18.1537 16.7897 17.8974 17.0062 17.6999C17.2226 17.5024 17.492 17.3723 17.7812 17.3256L21.1619 16.7697C21.5346 16.7097 21.9162 16.7905 22.2326 16.9964C22.549 17.2022 22.7775 17.5184 22.8737 17.8834L23.1794 19.0872C23.775 19.029 24.3819 19 25 19C25.6181 19 26.2244 19.029 26.8187 19.0872L27.1244 17.8834C27.2204 17.5183 27.4489 17.202 27.7653 16.9961C28.0818 16.7902 28.4635 16.7095 28.8362 16.7697L32.2188 17.3256C32.508 17.3723 32.7774 17.5024 32.9938 17.6999C33.2103 17.8974 33.3645 18.1537 33.4375 18.4375L36.2059 29.3481C36.293 29.6914 36.2552 30.0546 36.0993 30.3726C35.9433 30.6906 35.6794 30.9429 35.3547 31.0844ZM34.75 29.7137L31.9816 18.8125C31.9816 18.8125 31.9816 18.8125 31.9741 18.8125L28.5934 18.25C28.591 18.2486 28.5883 18.2478 28.5855 18.2478C28.5827 18.2478 28.5799 18.2486 28.5775 18.25L28.3122 19.2944C28.7809 19.3825 29.2497 19.4875 29.7025 19.615C29.881 19.6605 30.0365 19.7701 30.1394 19.9229C30.2423 20.0758 30.2853 20.2611 30.2603 20.4436C30.2353 20.6262 30.1439 20.7931 30.0037 20.9126C29.8635 21.0321 29.6842 21.0958 29.5 21.0915C29.4315 21.0913 29.3634 21.0819 29.2975 21.0634C27.8968 20.6833 26.4513 20.4938 25 20.5C23.5487 20.4935 22.1032 20.6827 20.7025 21.0625C20.6068 21.0921 20.5062 21.1022 20.4065 21.0922C20.3069 21.0823 20.2102 21.0525 20.1222 21.0046C20.0343 20.9567 19.9568 20.8916 19.8944 20.8133C19.832 20.735 19.7859 20.6449 19.7589 20.5485C19.7318 20.4521 19.7243 20.3512 19.7369 20.2518C19.7495 20.1525 19.7818 20.0566 19.832 19.97C19.8822 19.8833 19.9493 19.8076 20.0292 19.7473C20.1092 19.6869 20.2004 19.6432 20.2975 19.6187C20.7494 19.4912 21.2144 19.3862 21.6869 19.2981L21.4216 18.25C21.4216 18.25 21.4216 18.25 21.4103 18.25L18.0259 18.8059C18.0232 18.8052 18.0203 18.8052 18.0175 18.8059L15.25 29.7184L21.5312 32.5C21.5344 32.5017 21.538 32.5026 21.5416 32.5026C21.5452 32.5026 21.5487 32.5017 21.5519 32.5L22.1875 30.7862C21.5506 30.6888 20.9202 30.5536 20.2994 30.3812C20.1145 30.3221 19.9597 30.1937 19.8675 30.0228C19.7754 29.852 19.7531 29.6521 19.8053 29.4651C19.8575 29.2782 19.9801 29.1187 20.1475 29.0203C20.3148 28.9219 20.5137 28.8922 20.7025 28.9375C22.1031 29.3177 23.5487 29.5069 25 29.5C26.4513 29.5069 27.8969 29.3177 29.2975 28.9375C29.4891 28.8838 29.6941 28.9084 29.8676 29.0059C30.041 29.1033 30.1686 29.2657 30.2223 29.4573C30.2761 29.6489 30.2515 29.854 30.154 30.0274C30.0565 30.2008 29.8941 30.3285 29.7025 30.3822C29.0811 30.5543 28.45 30.6892 27.8125 30.7862L28.4453 32.5C28.4483 32.5016 28.4517 32.5025 28.4552 32.5025C28.4586 32.5025 28.462 32.5016 28.465 32.5L34.75 29.7137Z" fill="black"/>
</svg>
