<svg width="50" height="50" viewBox="0 0 50 50" fill="none" xmlns="http://www.w3.org/2000/svg">
<path d="M0.5 6C0.5 2.96243 2.96243 0.5 6 0.5H44C47.0376 0.5 49.5 2.96243 49.5 6V44C49.5 47.0376 47.0376 49.5 44 49.5H6C2.96243 49.5 0.5 47.0376 0.5 44V6Z" stroke="#1E293B"/>
<path d="M32.6092 19.5567C32.8129 18.8993 32.8783 18.2069 32.8011 17.5231C32.724 16.8392 32.506 16.1787 32.1608 15.5833C32.1023 15.482 32.0181 15.3978 31.9168 15.3393C31.8154 15.2808 31.7004 15.25 31.5833 15.25C30.8068 15.2484 30.0407 15.4284 29.3462 15.7757C28.6516 16.1229 28.0479 16.6278 27.5833 17.25H25.5833C25.1187 16.6278 24.515 16.1229 23.8205 15.7757C23.126 15.4284 22.3598 15.2484 21.5833 15.25C21.4663 15.25 21.3513 15.2808 21.2499 15.3393C21.1485 15.3978 21.0644 15.482 21.0058 15.5833C20.6607 16.1787 20.4427 16.8392 20.3655 17.5231C20.2884 18.2069 20.3537 18.8993 20.5575 19.5567C20.1456 20.2756 19.925 21.0882 19.9167 21.9167V22.5833C19.9181 23.7113 20.3276 24.8007 21.0695 25.6504C21.8115 26.5 22.8358 27.0525 23.9533 27.2058C23.4972 27.7896 23.2496 28.5092 23.25 29.25V29.9167H21.25C20.7196 29.9167 20.2109 29.706 19.8358 29.3309C19.4607 28.9558 19.25 28.4471 19.25 27.9167C19.25 27.4789 19.1638 27.0455 18.9963 26.6411C18.8287 26.2366 18.5832 25.8692 18.2737 25.5596C17.9642 25.2501 17.5967 25.0046 17.1923 24.8371C16.7879 24.6696 16.3544 24.5833 15.9167 24.5833C15.7399 24.5833 15.5703 24.6536 15.4453 24.7786C15.3202 24.9036 15.25 25.0732 15.25 25.25C15.25 25.4268 15.3202 25.5964 15.4453 25.7214C15.5703 25.8464 15.7399 25.9167 15.9167 25.9167C16.4471 25.9167 16.9558 26.1274 17.3309 26.5025C17.706 26.8775 17.9167 27.3862 17.9167 27.9167C17.9167 28.8007 18.2679 29.6486 18.893 30.2737C19.5181 30.8988 20.3659 31.25 21.25 31.25H23.25V32.5833C23.25 32.7601 23.3202 32.9297 23.4453 33.0547C23.5703 33.1798 23.7399 33.25 23.9167 33.25C24.0935 33.25 24.263 33.1798 24.3881 33.0547C24.5131 32.9297 24.5833 32.7601 24.5833 32.5833V29.25C24.5833 28.7196 24.794 28.2109 25.1691 27.8358C25.5442 27.4607 26.0529 27.25 26.5833 27.25C27.1138 27.25 27.6225 27.4607 27.9975 27.8358C28.3726 28.2109 28.5833 28.7196 28.5833 29.25V32.5833C28.5833 32.7601 28.6536 32.9297 28.7786 33.0547C28.9036 33.1798 29.0732 33.25 29.25 33.25C29.4268 33.25 29.5964 33.1798 29.7214 33.0547C29.8464 32.9297 29.9167 32.7601 29.9167 32.5833V29.25C29.9171 28.5092 29.6695 27.7896 29.2133 27.2058C30.3309 27.0525 31.3552 26.5 32.0971 25.6504C32.8391 24.8007 33.2486 23.7113 33.25 22.5833V21.9167C33.2417 21.0882 33.0211 20.2756 32.6092 19.5567ZM31.9167 22.5833C31.9167 23.4674 31.5655 24.3152 30.9404 24.9404C30.3152 25.5655 29.4674 25.9167 28.5833 25.9167H24.5833C23.6993 25.9167 22.8514 25.5655 22.2263 24.9404C21.6012 24.3152 21.25 23.4674 21.25 22.5833V21.9167C21.2582 21.25 21.4578 20.5998 21.825 20.0433C21.8935 19.9531 21.9378 19.8469 21.9538 19.7348C21.9699 19.6227 21.9571 19.5083 21.9167 19.4025C21.743 18.9547 21.6594 18.477 21.6707 17.9968C21.682 17.5166 21.788 17.0434 21.9825 16.6042C22.5281 16.6629 23.0535 16.8436 23.5197 17.133C23.986 17.4224 24.3811 17.813 24.6758 18.2758C24.7359 18.3698 24.8185 18.4471 24.9162 18.5008C25.0139 18.5546 25.1235 18.5829 25.235 18.5833H27.9308C28.0427 18.5833 28.1528 18.5552 28.251 18.5014C28.3492 18.4477 28.4322 18.3701 28.4925 18.2758C28.7872 17.8129 29.1823 17.4223 29.6486 17.1329C30.1148 16.8435 30.6402 16.6628 31.1858 16.6042C31.3801 17.0435 31.4857 17.5168 31.4967 17.9969C31.5078 18.4771 31.4239 18.9548 31.25 19.4025C31.2097 19.5073 31.1962 19.6205 31.2108 19.7318C31.2253 19.8432 31.2675 19.9491 31.3333 20.04C31.7042 20.5964 31.9067 21.248 31.9167 21.9167V22.5833Z" fill="black"/>
</svg>
